<?xml version="1.0" encoding="UTF-8"?>
<svg width="1060px" height="400px" viewBox="0 0 1060 400" version="1.1" xmlns="http://www.w3.org/2000/svg" xmlns:xlink="http://www.w3.org/1999/xlink">
    <!-- Generator: Sketch 52.6 (67491) - http://www.bohemiancoding.com/sketch -->
    <title>VFXF-R_Logo-WHITE</title>
    <desc>Created with Sketch.</desc>
    <g id="Page-1" stroke="none" stroke-width="1" fill="none" fill-rule="evenodd">
        <path d="M1040,216 C1028.95431,216 1020,207.045695 1020,196 C1020,184.954305 1028.95431,176 1040,176 C1051.04569,176 1060,184.954305 1060,196 C1060,207.045695 1051.04569,216 1040,216 Z M1040.20305,212.142132 C1049.00596,212.142132 1056.14213,205.00596 1056.14213,196.203046 C1056.14213,187.400131 1049.00596,180.263959 1040.20305,180.263959 C1031.40013,180.263959 1024.26396,187.400131 1024.26396,196.203046 C1024.26396,205.00596 1031.40013,212.142132 1040.20305,212.142132 Z M1039.00508,194.477157 C1040.12183,194.477157 1040.93401,194.253807 1041.42132,193.827411 C1041.90863,193.42132 1042.17259,192.730964 1042.17259,191.756345 C1042.17259,190.80203 1041.90863,190.13198 1041.42132,189.705584 C1040.93401,189.299492 1040.12183,189.096447 1039.00508,189.096447 L1036.73096,189.096447 L1036.73096,194.477157 L1039.00508,194.477157 Z M1036.73096,198.192893 L1036.73096,206.111675 L1031.32995,206.111675 L1031.32995,185.177665 L1039.5736,185.177665 C1042.33503,185.177665 1044.34518,185.64467 1045.62437,186.57868 C1046.92386,187.492386 1047.5533,188.954315 1047.5533,190.964467 C1047.5533,192.345178 1047.22843,193.482234 1046.55838,194.375635 C1045.88832,195.248731 1044.8934,195.918782 1043.53299,196.324873 C1044.28426,196.507614 1044.93401,196.893401 1045.52284,197.482234 C1046.11168,198.071066 1046.70051,198.964467 1047.28934,200.182741 L1050.2335,206.111675 L1044.48731,206.111675 L1041.92893,200.913706 C1041.42132,199.878173 1040.8934,199.147208 1040.36548,198.781726 C1039.83756,198.395939 1039.1269,198.192893 1038.25381,198.192893 L1036.73096,198.192893 Z M446.301741,285.227723 L446.301741,203.086959 L435,201.435286 L435,195.851055 L502.679018,195.851055 L503.998468,217.140676 L496.931388,217.140676 L493.394225,202.170053 L456.970146,202.170053 L456.970146,239.919494 L482.794122,239.919494 L484.932149,229.186718 L490.932286,229.186718 L490.932286,257.780546 L484.932149,257.780546 L482.794122,246.602771 L456.970146,246.602771 L456.970146,285.753444 L477.17171,285.753444 L477.17171,291.938942 L435.75545,291.938942 L435.75545,286.386793 L446.301741,285.227723 Z M524.924437,191.90194 C526.258376,190.203696 528.118025,189.341638 530.516838,189.341638 L530.577895,189.341638 C532.638307,189.341638 534.275461,190.096068 535.474867,191.59251 C536.66703,193.087916 537.273459,194.82652 537.273459,196.792799 C537.273459,199.285833 536.605973,201.320414 535.285487,202.917239 C533.958793,204.527517 532.030843,205.315063 529.505776,205.315063 L529.444719,205.315063 C527.463991,205.315063 525.88686,204.614447 524.708151,203.207006 C523.522197,201.79853 522.936465,200.059926 522.936465,198.005682 C522.9375,195.635799 523.603952,193.607428 524.924437,191.90194 Z M525.396335,285.369502 L525.396335,228.741718 L515.236048,226.464975 L515.236048,220.663419 L532.975673,218.636082 L533.292341,218.636082 L535.811198,220.663419 L535.811198,285.43677 L547.123287,286.379548 L547.123287,291.938942 L514.036641,291.938942 L514.036641,286.379548 L525.396335,285.369502 Z M564.485187,285.578549 L564.485187,230.709032 L554.447014,228.175637 L554.447014,222.368907 L570.918932,220.347779 L571.236635,220.347779 L573.756526,222.368907 L573.756526,228.270847 L573.635447,231.57109 C575.616176,229.806613 578.148486,228.041102 581.247901,226.275591 C584.332828,224.524569 587.620589,223.063313 591.124635,221.897 C594.614194,220.738965 597.881257,220.158396 600.907197,220.158396 C606.377484,220.158396 610.608005,221.209837 613.599794,223.311685 C616.58434,225.401115 618.653031,228.566823 619.812078,232.804671 C620.97009,237.043553 621.550648,242.729202 621.550648,249.844026 L621.550648,285.639607 L631.272153,286.555479 L631.272153,291.938942 L602.234927,291.938942 L602.234927,286.555479 L611.13475,285.639607 L611.13475,249.897839 C611.13475,244.602341 610.765304,240.43797 610.030551,237.400588 C609.303042,234.368379 607.874931,232.084392 605.773124,230.541381 C603.656829,229.005614 600.571901,228.231521 596.488331,228.231521 C593.039132,228.231521 589.327078,229.100823 585.344924,230.818729 C581.370015,232.529392 577.886665,234.563972 574.90212,236.895565 L574.90212,285.579584 L584.306957,286.555479 L584.306957,291.938942 L555.768534,291.938942 L555.768534,286.555479 L564.485187,285.578549 Z M695.098375,285.180119 L695.098375,285.181153 L703.176517,285.181153 L703.176517,289.978873 C698.12328,291.325256 694.082139,291.992756 691.063443,291.992756 C689.628088,291.992756 688.557005,291.885128 687.83674,291.656419 C687.128894,291.427709 686.576277,290.921652 686.199586,290.161012 C685.821861,289.372431 685.626272,288.165757 685.626272,286.535816 L685.626272,281.819852 C683.733507,283.463247 681.806592,284.958653 679.85277,286.332979 C677.898949,287.707304 675.420451,288.987454 672.428662,290.193094 C669.450326,291.398733 666.310551,291.991721 663.02279,291.991721 C659.027184,291.991721 655.402058,291.264198 652.134995,289.795698 C648.875176,288.340652 646.27353,286.084607 644.347649,283.045154 C642.408316,280.000527 641.437614,276.240796 641.437614,271.753542 C641.437614,266.101009 643.472155,261.506126 647.527784,257.962686 C651.596866,254.425454 656.872598,251.851699 663.380853,250.262118 C669.881864,248.665293 677.023454,247.869468 684.811835,247.869468 L684.811835,244.285667 C684.811835,240.364494 684.360635,237.285716 683.45099,235.048298 C682.548589,232.811915 680.977667,231.167485 678.748571,230.123288 C676.525685,229.07909 673.359004,228.55337 669.276469,228.55337 C662.040705,228.55337 654.467576,230.635555 646.544664,234.812344 L646.483607,234.812344 L643.648082,229.832486 C644.617749,228.910404 646.637801,227.664405 649.71031,226.100696 C652.781784,224.538022 656.285831,223.156453 660.213137,221.964267 C664.154931,220.758628 667.927007,220.158396 671.552133,220.158396 C677.440504,220.158396 682.08911,220.946977 685.498984,222.523104 C688.912998,224.099232 691.366658,226.633661 692.854792,230.109834 C694.350169,233.599461 695.098375,238.294727 695.098375,244.196667 L695.098375,285.180119 Z M684.811835,276.853447 L684.81287,276.853447 L684.81287,253.871792 C677.819264,253.871792 671.944346,254.585861 667.160173,256.028489 C662.38428,257.462837 658.819176,259.477755 656.461758,262.050475 C654.104339,264.62423 652.931839,267.616078 652.931839,271.004286 C652.931839,275.943784 654.192303,279.540004 656.717369,281.804329 C659.237261,284.0552 662.632647,285.180119 666.876621,285.180119 C669.362362,285.180119 672.280676,284.365665 675.62225,282.72848 C678.970032,281.097504 682.029088,279.137434 684.811835,276.853447 Z M720.855085,285.578549 L720.855085,230.709032 L710.816912,228.175637 L710.816912,222.368907 L727.296073,220.347779 L727.612742,220.347779 L730.133668,222.368907 L730.133668,228.270847 L730.012589,231.57109 C731.986073,229.806613 734.519419,228.041102 737.618834,226.275591 C740.717214,224.524569 744.006009,223.063313 747.495568,221.897 C750.985127,220.738965 754.259434,220.158396 757.285374,220.158396 C762.754626,220.158396 766.993425,221.209837 769.970727,223.311685 C772.962516,225.401115 775.037417,228.566823 776.196464,232.804671 C777.355511,237.043553 777.935034,242.729202 777.935034,249.844026 L777.935034,285.639607 L787.65033,286.555479 L787.65033,291.938942 L758.613103,291.938942 L758.613103,286.555479 L767.512927,285.639607 L767.512927,249.897839 C767.512927,244.602341 767.142446,240.43797 766.401484,237.400588 C765.673975,234.368379 764.259317,232.084392 762.144057,230.541381 C760.042249,229.005614 756.956287,228.231521 752.873752,228.231521 C749.410065,228.231521 745.705255,229.100823 741.72931,230.818729 C737.740948,232.529392 734.264842,234.563972 731.273053,236.895565 L731.273053,285.579584 L740.685133,286.555479 L740.685133,291.938942 L712.146711,291.938942 L712.146711,286.555479 L720.855085,285.578549 Z M841.436309,221.385767 C844.676466,222.207465 847.432306,223.09643 849.709005,224.06715 L849.142935,241.624982 L842.696772,241.624982 L839.981291,229.982544 C839.395559,227.516417 835.695923,226.28387 828.878244,226.28387 C824.411775,226.28387 820.524829,227.382917 817.189465,229.591358 C813.867554,231.801869 811.307302,234.967577 809.489048,239.118494 C807.683211,243.247679 806.773567,248.132328 806.773567,253.738292 C806.773567,260.509534 807.790837,266.188974 809.805716,270.783856 C811.819559,275.378738 814.582644,278.801097 818.072203,281.051969 C821.575215,283.301805 825.550124,284.420514 830.010385,284.420514 C833.674835,284.420514 837.219242,283.875131 840.641534,282.762631 C844.076245,281.65841 846.866236,280.350318 849.008403,278.861121 L851.097792,282.883712 C848.604806,285.3902 845.169061,287.532408 840.776066,289.311373 C836.376863,291.102756 832.031472,292 827.732651,292 C820.922216,292 815.093867,290.464233 810.249672,287.38442 C805.405477,284.311851 801.75448,280.121609 799.295645,274.806448 C796.835775,269.503705 795.603253,263.528288 795.603253,256.891581 C795.603253,250.221758 796.957889,244.097318 799.679579,238.525506 C802.386781,232.960938 806.44241,228.494381 811.818525,225.158952 C817.209127,221.830767 823.783613,220.159431 831.525424,220.159431 C834.887695,220.158396 838.197187,220.563035 841.436309,221.385767 Z M873.478778,191.90194 C874.798229,190.203696 876.657878,189.341638 879.057726,189.341638 L879.123957,189.341638 C881.185404,189.341638 882.816349,190.096068 884.015755,191.59251 C885.215162,193.087916 885.820557,194.82652 885.820557,196.792799 C885.820557,199.285833 885.154105,201.320414 883.826375,202.917239 C882.506925,204.527517 880.578974,205.315063 878.060117,205.315063 L877.992851,205.315063 C876.012123,205.315063 874.429817,204.614447 873.257317,203.207006 C872.077573,201.79853 871.484597,200.059926 871.484597,198.005682 C871.484597,195.635799 872.144839,193.607428 873.478778,191.90194 Z M873.949641,285.369502 L873.949641,228.741718 L863.776936,226.464975 L863.776936,220.663419 L881.523805,218.636082 L881.839438,218.636082 L884.366574,220.663419 L884.366574,285.43677 L895.664175,286.379548 L895.664175,291.938942 L862.592017,291.938942 L862.592017,286.379548 L873.949641,285.369502 Z M959.235821,285.180119 L959.235821,285.181153 L967.321207,285.181153 L967.321207,289.978873 C962.26797,291.325256 958.233039,291.992756 955.200889,291.992756 C953.759325,291.992756 952.694451,291.885128 951.980395,291.656419 C951.265305,291.427709 950.713723,290.921652 950.335998,290.161012 C949.959307,289.372431 949.769927,288.165757 949.769927,286.535816 L949.769927,281.819852 C947.877163,283.463247 945.944038,284.958653 943.990216,286.332979 C942.036395,287.707304 939.556863,288.987454 936.572317,290.193094 C933.587772,291.398733 930.447997,291.991721 927.166446,291.991721 C923.165664,291.991721 919.547783,291.264198 916.273476,289.795698 C913.012622,288.340652 910.412011,286.084607 908.485095,283.045154 C906.544727,280.000527 905.57506,276.240796 905.57506,271.753542 C905.57506,266.101009 907.609601,261.506126 911.672474,257.962686 C915.735347,254.425454 921.017289,251.851699 927.518299,250.262118 C934.01931,248.665293 941.161935,247.869468 948.949281,247.869468 L948.949281,244.285667 C948.949281,240.364494 948.490837,237.285716 947.594645,235.048298 C946.685,232.811915 945.122357,231.167485 942.886017,230.123288 C940.655887,229.07909 937.502659,228.55337 933.41288,228.55337 C926.178151,228.55337 918.606057,230.635555 910.695563,234.812344 L910.628297,234.812344 L907.785528,229.832486 C908.755195,228.910404 910.776282,227.664405 913.848791,226.100696 C916.920265,224.538022 920.424312,223.156453 924.358862,221.964267 C928.293412,220.758628 932.072732,220.158396 935.690614,220.158396 C941.585194,220.158396 946.227591,220.946977 949.642639,222.523104 C953.057688,224.099232 955.510314,226.633661 956.999482,230.109834 C958.487615,233.599461 959.235821,238.294727 959.235821,244.196667 L959.235821,285.180119 Z M948.948246,276.853447 L948.949281,276.853447 L948.949281,253.871792 C941.95671,253.871792 936.080757,254.585861 931.304863,256.028489 C926.527935,257.462837 922.956622,259.477755 920.599204,262.050475 C918.241785,264.62423 917.069285,267.616078 917.069285,271.004286 C917.069285,275.943784 918.334923,279.540004 920.854815,281.804329 C923.380916,284.0552 926.769058,285.180119 931.014067,285.180119 C933.499808,285.180119 936.418123,284.365665 939.765905,282.72848 C943.107478,281.097504 946.166534,279.137434 948.948246,276.853447 Z M987.45861,285.369502 L987.45861,194.140393 L976.354528,193.00823 L976.354528,188.271569 L995.347372,186 L995.408429,186 L997.93453,187.772755 L997.93453,285.429525 L1010,286.379548 L1010,291.938942 L976.031651,291.938942 L976.031651,286.379548 L987.45861,285.369502 Z M0,0 L399.590413,0 L399.590413,153.608 L373.689508,153.608 L373.689508,25.924 L25.8969089,25.924 L25.8969089,374.07 L373.689508,374.07 L373.689508,325.458 L399.590413,325.458 L399.590413,400 L0,400 L0,0 Z M105,196 L129.161319,196 L152.907374,258.913645 L153.18356,258.913645 L177.340934,196 L200,196 L160.37228,292 L143.41053,292 L105,196 Z M220,196 L285,196 L285,215.72721 L241.354031,215.72721 L241.354031,235.460395 L281.719814,235.460395 L281.719814,255.19358 L241.354031,255.19358 L241.354031,293 L220,293 L220,196 Z M366.30338,244.503158 L400,293 L371.505843,293 L349.558084,257.091306 L328.489376,293 L301.006339,293 L334.290904,244.503158 L334.707186,244.503158 L301,196 L329.497327,196 L351.446143,231.921326 L372.524359,196 L400,196 L366.718605,244.503158 L366.30338,244.503158 Z" id="VFXF-R_Logo-WHITE" fill="#FFFFFF"></path>
    </g>
</svg>