<?xml version="1.0" encoding="UTF-8"?>
<svg width="94px" height="94px" viewBox="0 0 94 94" version="1.1" xmlns="http://www.w3.org/2000/svg" xmlns:xlink="http://www.w3.org/1999/xlink">
    <!-- Generator: Sketch 52.5 (67469) - http://www.bohemiancoding.com/sketch -->
    <title>Security</title>
    <desc>Created with Sketch.</desc>
    <g id="Page-1" stroke="none" stroke-width="1" fill="none" fill-rule="evenodd" stroke-linecap="square">
        <g id="Security" transform="translate(1.000000, 1.000000)" stroke-width="2">
            <path d="M12.8135625,15.96685 C12.8135625,14.22435 14.2585625,12.81335 16.0010625,12.81335 C17.7605625,12.81335 19.1885625,14.24135 19.1885625,16.00085 L19.1885625,28.75085 L28.6150625,31.93835 C30.7145625,32.6141 31.1905625,35.0961 30.6954375,37.25085 L28.5279375,48.93835 L11.5598125,48.93835 L3.0279375,36.18835 C2.0610625,34.7136 2.0355625,31.93835 4.1605625,31.93835 C6.2855625,31.93835 8.5635625,32.828725 12.8135625,39.37585 L12.8135625,15.96685 L12.8135625,15.96685 Z" id="Stroke-7958" stroke="#B4BFCC"></path>
            <polyline id="Stroke-7959" stroke="#B4BFCC" points="12.8135625 25.5625 0.0635625 25.5625 0.0635625 6.4375 25.5635625 6.4375"></polyline>
            <polygon id="Stroke-7960" stroke="#42AFB7" points="29.8125 23.4375 48.9375 23.4375 48.9375 8.5625 29.8125 8.5625"></polygon>
            <path d="M39.375,19.1875 L39.375,14.9375" id="Stroke-7961" stroke="#42AFB7"></path>
            <path d="M33,8.5625 L33,6.4375 C33,2.916375 35.856,0.0625 39.375,0.0625 C42.894,0.0625 45.75,2.916375 45.75,6.4375 L45.75,8.5625" id="Stroke-7962" stroke="#42AFB7"></path>
            <path d="M40.4375,13.875 C40.4375,14.4615 39.9615,14.9375 39.375,14.9375 C38.7885,14.9375 38.3125,14.4615 38.3125,13.875 C38.3125,13.2885 38.7885,12.8125 39.375,12.8125 C39.9615,12.8125 40.4375,13.2885 40.4375,13.875 L40.4375,13.875 Z" id="Stroke-7963" stroke="#42AFB7"></path>
            <path d="M19.1875,25.5625 L25.5625,25.5625" id="Stroke-7964" stroke="#B4BFCC"></path>
        </g>
    </g>
</svg>